<svg viewBox="-4749.48 -5020 35.036 35.036" xmlns="http://www.w3.org/2000/svg" xmlns:xlink="http://www.w3.org/1999/xlink"><clipPath id="a"><path d="m0-399.479h17.555v17.555h-17.555z" transform="translate(0 399.479)"/></clipPath><g clip-path="url(#a)" transform="translate(-4740.87 -5011)"><path d="m-381.924-190.962a8.778 8.778 0 0 0 -8.778-8.778 8.778 8.778 0 0 0 -8.778 8.778 8.745 8.745 0 0 0 2.26 5.879v1.442c0 .8.492 1.457 1.1 1.457h5.83a.843.843 0 0 0 .183-.02 8.778 8.778 0 0 0 8.184-8.757" fill="#fff" transform="translate(399.479 199.74)"/><path d="m-68.763-194.079a9.292 9.292 0 0 1 6.38-8.888c-.252-.022-.506-.033-.763-.033a8.774 8.774 0 0 0 -8.778 8.778 9.508 9.508 0 0 0 2.224 5.922c.005 0 0 .009 0 .01-.311.352-1.924 2.849.021 2.849h2.25c-1.23-.022 1.263-2.107.269-3.494a8.225 8.225 0 0 1 -1.6-5.141" fill="#eff4f9" transform="translate(71.924 203)"/></g></svg>