<svg fill="none" height="58" width="57" xmlns="http://www.w3.org/2000/svg" xmlns:xlink="http://www.w3.org/1999/xlink"><filter id="a" color-interpolation-filters="sRGB" filterUnits="userSpaceOnUse" height="56.75" width="56" x=".7" y=".95"><feFlood flood-opacity="0" result="BackgroundImageFix"/><feColorMatrix in="SourceAlpha" values="0 0 0 0 0 0 0 0 0 0 0 0 0 0 0 0 0 0 127 0"/><feOffset dx="-.3" dy="-.3"/><feGaussianBlur stdDeviation="1.5"/><feColorMatrix values="0 0 0 0 1 0 0 0 0 1 0 0 0 0 1 0 0 0 0.7 0"/><feBlend in2="BackgroundImageFix" result="effect1_dropShadow"/><feBlend in="SourceGraphic" in2="effect1_dropShadow" result="shape"/></filter><g filter="url(#a)"><path d="m54 14.667c0-1.853-1.447-3.36-3.226-3.36s-3.226 1.507-3.226 3.36c0 1.561 1.032 2.867 2.42 3.242v15.244h-2.42v-9.243c0-2.316-1.809-4.201-4.032-4.201h-33.871c-2.223 0-4.032 1.885-4.032 4.201v24.523a2.512 2.512 0 0 0 -1.613 2.366v4.201h45.161v-4.2a2.512 2.512 0 0 0 -1.613-2.366v-5.197h1.613c1.334 0 2.42-1.13 2.42-2.52v-22.808c1.388-.375 2.419-1.68 2.419-3.242zm-44.355 6.723h33.871c1.334 0 2.42 1.132 2.42 2.521v24.368h-8.538l-1.613-1.68h-18.41l-1.612 1.68h-8.537v-24.369c0-1.39 1.085-2.52 2.42-2.52zm37.903 31.93h-41.935v-2.52c0-.463.361-.84.806-.84h10.012l1.613-1.68h17.074l1.613 1.68h10.01c.446 0 .807.377.807.84zm1.613-11.763h-1.613v-6.722h2.42v5.882c0 .463-.362.84-.807.84zm1.613-25.208c-.89 0-1.613-.754-1.613-1.68 0-.928.724-1.681 1.613-1.681.89 0 1.613.753 1.613 1.68s-.723 1.68-1.613 1.68z" fill="#fff"/><path d="m10 33.716h5.124l-4.139 6.949 1.53.794 4.485-7.532v-1.843h-7zm27-1.632v1.632h5.124l-4.139 6.949 1.53.794 4.485-7.532v-1.843zm-13.015 4.456 1.53.794 4.485-7.532v-1.842h-7v1.632h5.124l-4.139 6.949z" fill="#fff"/><g stroke="#fff" stroke-width="1.5"><path d="m25.5 6.563.795-1.563 5.75 6.353 7.905-6.353-4.671 15.078h-17.967l-4.312-15.078 7.905 6.353.67-.845" stroke-linecap="round" stroke-linejoin="round"/><path d="m28.738 14.702c0 1.025-.79 1.803-1.701 1.803-.91 0-1.701-.778-1.701-1.803s.79-1.803 1.7-1.803c.912 0 1.702.778 1.702 1.803z"/><path d="m32.5 24.5v19m-12-19v19" stroke-linecap="round"/></g></g></svg>