<svg fill="none" height="59" width="59" xmlns="http://www.w3.org/2000/svg" xmlns:xlink="http://www.w3.org/1999/xlink"><filter id="a" color-interpolation-filters="sRGB" filterUnits="userSpaceOnUse" height="57.5" width="57.5" x=".95" y=".95"><feFlood flood-opacity="0" result="BackgroundImageFix"/><feColorMatrix in="SourceAlpha" values="0 0 0 0 0 0 0 0 0 0 0 0 0 0 0 0 0 0 127 0"/><feOffset dx="-.3" dy="-.3"/><feGaussianBlur stdDeviation="1.5"/><feColorMatrix values="0 0 0 0 1 0 0 0 0 1 0 0 0 0 1 0 0 0 0.7 0"/><feBlend in2="BackgroundImageFix" result="effect1_dropShadow"/><feBlend in="SourceGraphic" in2="effect1_dropShadow" result="shape"/></filter><g filter="url(#a)"><g stroke="#fff" stroke-width="1.5"><path d="m17.209 42.255-5.246 11.354a.98.98 0 0 0 .89 1.391h2.75" stroke-linecap="round"/><path d="m42.825 42.255 5.398 12.745h-25.223" stroke-linecap="round" stroke-linejoin="round"/><path d="m54 5h-48a1 1 0 0 0 -1 1v35a1 1 0 0 0 1 1h48a1 1 0 0 0 1-1v-35a1 1 0 0 0 -1-1z"/><path d="m28.077 14h5c.51 0 .923.448.923 1v17c0 .552-.413 1-.923 1h-10.154c-.51 0-.923-.448-.923-1v-17c0-.552.413-1 .923-1h1.385m11.852 1.808 1.747.436a1 1 0 0 1 .73 1.203l-2.59 10.816" stroke-linecap="round"/></g><path d="m28.716 19.317c-.25-.423-.947-.422-1.197 0l-2.423 4.102a.692.692 0 0 0 0 .704l2.423 4.102a.695.695 0 0 0 1.196 0l2.424-4.1a.695.695 0 0 0 0-.707zm-.599 7.191-1.617-2.736 1.617-2.737 1.617 2.737z" fill="#fff"/></g></svg>