<svg width="128" height="128" fill="none" xmlns="http://www.w3.org/2000/svg"><path d="M64 0C28.648 0 0 28.648 0 64c0 35.353 28.648 64 64 64 35.353 0 64-28.647 64-64 0-35.352-28.647-64-64-64zm4.923 5.174a58.579 58.579 0 0120.21 5.44l-7.395 12.81a44.103 44.103 0 00-12.82-3.441V5.174h.005zm-9.846 0v14.809a44.258 44.258 0 00-12.82 3.441l-7.394-12.81a58.633 58.633 0 0120.214-5.44zm-28.75 10.348l7.428 12.86a44.59 44.59 0 00-9.368 9.368l-12.86-7.429a59.534 59.534 0 0114.8-14.799zM10.613 38.868l12.81 7.394a44.103 44.103 0 00-3.441 12.82H5.174a58.574 58.574 0 015.44-20.214zm-5.44 30.055h14.809a44.258 44.258 0 003.441 12.82l-12.81 7.394a58.657 58.657 0 01-5.439-20.214zm25.152 43.554a59.479 59.479 0 01-14.803-14.803l12.858-7.43a44.608 44.608 0 009.37 9.37l-7.425 12.863zm28.75 10.349a58.588 58.588 0 01-20.208-5.44l7.394-12.81a44.115 44.115 0 0012.82 3.441v14.809h-.005zM24.617 64c0-21.72 17.663-39.385 39.384-39.385 21.72 0 39.385 17.665 39.385 39.385S85.72 103.385 64 103.385 24.615 85.72 24.615 64zm44.307 58.826v-14.809a44.273 44.273 0 0012.82-3.441l7.394 12.81a58.642 58.642 0 01-20.214 5.44zm28.75-10.349l-7.428-12.859a44.59 44.59 0 009.368-9.368l12.86 7.429a59.533 59.533 0 01-14.8 14.798zm19.713-23.345l-12.81-7.394a44.115 44.115 0 003.441-12.82h14.809a58.583 58.583 0 01-5.44 20.214zm5.44-30.055h-14.809a44.273 44.273 0 00-3.441-12.82l12.81-7.394a58.644 58.644 0 015.44 20.214zM99.613 37.755a44.6 44.6 0 00-9.368-9.369l7.429-12.859a59.482 59.482 0 0114.803 14.804l-12.864 7.424z" fill="#E44F5B"/><path d="M72 54.951L64 38.75l-8 16.202-17.88 2.6 12.938 12.617-3.053 17.812 15.996-8.409 15.995 8.409-3.053-17.812L89.881 57.55l-17.88-2.599zm1.458 24.03L64 74.008l-9.458 4.973 1.802-10.53-7.65-7.464 10.57-1.541L64 49.87l4.73 9.58 10.57 1.54-7.65 7.464 1.807 10.526z" fill="#E44F5B"/></svg>