<svg width="22" height="27" fill="none" xmlns="http://www.w3.org/2000/svg"><circle cx="9.5" cy="18.5" r="1" transform="rotate(-90 9.5 18.5)" fill="#fff"/><circle cx="9.5" cy="13.5" r="1" transform="rotate(-90 9.5 13.5)" fill="#fff"/><circle cx="9.5" cy="8.5" r="1" transform="rotate(-90 9.5 8.5)" fill="#fff"/><path d="M21.187 13.028L17.5 11.125V3.039C17.5 1.64 16.379.5 15 .5H3C1.622.5.501 1.639.501 3.04v8.429c0 .28.224.508.5.508s.5-.228.5-.508v-8.43c0-.84.673-1.523 1.5-1.523h12c.827 0 1.5.683 1.5 1.523v8.43c0 .207.124.394.314.471l3.064 1.651-3.135 2.52a.51.51 0 00-.243.436v7.414c0 .84-.673 1.523-1.5 1.523H3c-.827 0-1.5-.683-1.5-1.523v-8.43a.504.504 0 00-.5-.508c-.276 0-.5.228-.5.508v8.43c0 1.4 1.121 2.539 2.5 2.539h12c1.379 0 2.5-1.139 2.5-2.54v-7.126l3.757-2.899a.51.51 0 00-.071-.907z" fill="#fff"/></svg>